<svg version="1.1" id="Layer_1" xmlns="http://www.w3.org/2000/svg" xmlns:xlink="http://www.w3.org/1999/xlink" x="0px" y="0px"
	 width="100%" height="100%" viewBox="200 35 430 520" enable-background="new 0 0 832 576" xml:space="preserve">
<path fill="currentColor" opacity="1.000000" stroke="none" 
	d="
M447.000000,455.034088 
	C423.844330,455.032043 401.188477,455.079742 378.533051,455.004730 
	C369.996796,454.976471 366.624481,451.985535 366.884003,443.685730 
	C367.412323,426.787262 360.888275,413.025299 349.573914,400.960419 
	C334.983795,385.402496 321.044556,369.291901 308.346680,352.109253 
	C287.310425,323.643311 277.439880,291.685364 279.895599,256.538544 
	C284.580048,189.494370 333.023956,139.020142 393.224487,126.580818 
	C461.937897,112.382469 531.966553,150.281281 555.630127,216.999100 
	C572.829834,265.492462 565.481628,311.006622 535.197144,352.699982 
	C522.940918,369.573425 509.309479,385.333282 495.033539,400.476929 
	C483.038513,413.200989 477.537018,428.036316 477.321411,445.238556 
	C477.235687,452.079956 474.394409,454.840942 467.488495,454.999603 
	C460.828918,455.152649 454.163055,455.034210 447.000000,455.034088 
M321.755219,191.241638 
	C307.807678,210.001236 299.504639,231.084564 297.486267,254.284271 
	C294.692688,286.393799 303.028748,315.524780 322.275269,341.618530 
	C335.262299,359.225952 349.909149,375.369720 364.534424,391.551086 
	C375.092896,403.232910 382.587311,416.262268 383.641785,432.324371 
	C383.913818,436.468170 385.699646,437.829102 389.968933,437.784027 
	C411.127563,437.560638 432.292023,437.522827 453.449371,437.803040 
	C458.615448,437.871460 461.309448,436.746765 461.095581,431.121063 
	C461.009094,428.846771 461.772095,426.535797 462.182739,424.247650 
	C464.701721,410.212402 472.730896,399.247101 481.993530,389.026550 
	C496.318878,373.219727 510.400024,357.221924 522.931824,339.917236 
	C543.518066,311.490570 551.242493,279.717987 545.254150,245.376785 
	C533.497620,177.956543 472.833893,133.511642 405.403473,142.263885 
	C371.001343,146.729187 343.445740,163.392624 321.755219,191.241638 
z"/>
<path fill="currentColor" opacity="1.000000" stroke="none" 
	d="
M406.999878,489.382233 
	C396.676697,489.374817 386.853210,489.408844 377.030396,489.345367 
	C371.049377,489.306671 367.331360,486.173370 367.059875,481.140198 
	C366.785950,476.061707 370.651184,472.097351 376.813202,472.072174 
	C406.781281,471.949585 436.750488,471.961487 466.718628,472.087097 
	C473.308136,472.114716 477.142853,475.847626 476.972961,481.205383 
	C476.812622,486.262573 472.923218,489.350403 466.439209,489.363159 
	C446.792847,489.401764 427.146362,489.380524 406.999878,489.382233 
z"/>
<path fill="currentColor" opacity="1.000000" stroke="none" 
	d="
M448.973450,503.666992 
	C452.301300,503.681915 455.144836,503.547913 457.965271,503.744843 
	C463.248505,504.113800 466.348328,507.413055 466.335052,512.387817 
	C466.321655,517.410706 463.302246,520.840088 458.042725,521.145996 
	C453.059082,521.435852 448.046783,521.250671 443.047150,521.245972 
	C424.714050,521.228760 406.380707,521.250916 388.048035,521.148315 
	C381.306915,521.110596 377.882660,518.247192 377.671326,512.922363 
	C377.432556,506.904907 380.876160,503.719971 387.979340,503.699707 
	C408.145660,503.642273 428.312256,503.671997 448.973450,503.666992 
z"/>
<path fill="currentColor" opacity="1.000000" stroke="none" 
	d="
M414.000061,552.380493 
	C407.842499,552.379150 402.183868,552.442505 396.527496,552.357178 
	C391.097229,552.275330 387.663269,548.824463 387.722687,543.704102 
	C387.778442,538.899475 391.153229,535.699280 396.558472,535.679504 
	C413.531128,535.617249 430.504364,535.611755 447.476929,535.686462 
	C452.975128,535.710693 456.369202,539.191528 456.283997,544.315735 
	C456.203857,549.135376 452.836639,552.310974 447.447296,552.348755 
	C436.465332,552.425781 425.482483,552.377136 414.000061,552.380493 
z"/>
<path fill="currentColor" opacity="1.000000" stroke="none" 
	d="
M519.023438,77.084152 
	C519.998901,75.503769 520.648743,74.119583 521.602417,72.992409 
	C524.496826,69.571335 529.284729,68.711960 532.845886,71.117073 
	C536.608337,73.658150 538.205139,77.649460 536.167297,81.541985 
	C531.013428,91.386467 525.403992,101.007858 519.605286,110.491341 
	C517.406677,114.087166 511.956116,114.705215 508.401062,112.589531 
	C504.847260,110.474602 503.232147,105.882599 505.107330,101.670509 
	C506.788635,97.893745 509.036407,94.365150 511.092316,90.760147 
	C513.642578,86.288269 516.252625,81.850418 519.023438,77.084152 
z"/>
<path fill="currentColor" opacity="1.000000" stroke="none" 
	d="
M581.508789,180.076584 
	C576.164062,180.739349 572.520020,178.913300 571.120728,174.018234 
	C569.720093,169.118027 572.061707,165.770248 576.293030,163.372330 
	C584.379944,158.789352 592.379761,154.052567 600.469055,149.473877 
	C605.840576,146.433517 611.018738,147.492096 613.463806,151.951263 
	C615.955505,156.495651 614.317017,161.621857 609.206604,164.559280 
	C600.144958,169.767807 591.011169,174.850891 581.508789,180.076584 
z"/>
<path fill="currentColor" opacity="1.000000" stroke="none" 
	d="
M253.033813,154.896210 
	C258.235809,157.905716 263.161102,160.667877 267.991364,163.587296 
	C273.278839,166.783051 274.744629,171.616211 271.985718,176.200302 
	C269.364868,180.554993 264.512695,181.652954 259.365967,178.755478 
	C250.975632,174.031967 242.644531,169.199600 234.365219,164.283890 
	C229.683105,161.503967 228.154205,156.099716 230.597733,151.891800 
	C233.129196,147.532440 238.069794,146.467667 243.207047,149.269226 
	C246.413406,151.017761 249.548294,152.897354 253.033813,154.896210 
z"/>
<path fill="currentColor" opacity="1.000000" stroke="none" 
	d="
M324.278198,75.763321 
	C328.860718,83.721703 333.289764,91.345444 337.655640,99.005188 
	C340.903778,104.703995 340.021271,110.076843 335.526215,112.527534 
	C330.743286,115.135185 325.945007,113.409042 322.686005,107.815170 
	C318.248138,100.197884 313.854492,92.554733 309.467438,84.908020 
	C306.164642,79.151245 306.804840,73.824120 311.064850,71.225365 
	C315.621979,68.445366 320.245850,69.942123 324.278198,75.763321 
z"/>
<path fill="currentColor" opacity="1.000000" stroke="none" 
	d="
M428.712769,44.531086 
	C429.374908,45.768353 430.113464,46.671570 430.121429,47.581181 
	C430.224609,59.371071 430.546722,71.174751 430.077057,82.945564 
	C429.909271,87.151154 426.277161,89.361519 421.868713,89.318741 
	C417.418976,89.275566 414.058655,86.934189 413.907196,82.671814 
	C413.494659,71.061058 413.350311,59.402885 413.959381,47.808666 
	C414.296295,41.395409 422.272369,39.668686 428.712769,44.531086 
z"/>
<path fill="currentColor" opacity="1.000000" stroke="none" 
	d="
M440.416321,302.588806 
	C443.914398,292.910034 447.276520,283.608185 450.612152,274.379669 
	C448.236938,273.003784 446.484375,274.180603 444.741547,274.355682 
	C437.342560,275.098846 430.942474,273.063171 425.381989,268.133301 
	C423.980225,266.890564 422.503754,264.879822 420.285828,266.905426 
	C412.745697,273.791687 404.008881,276.193207 394.210022,273.408295 
	C393.055328,276.160797 394.346039,277.882965 395.105957,279.640442 
	C405.638458,303.998871 411.474548,329.452423 413.413666,355.896881 
	C414.644012,372.675629 415.439423,389.452972 415.252899,406.275238 
	C415.241791,407.274506 415.312927,408.276031 415.272400,409.273499 
	C415.042206,414.938538 411.371399,418.966095 406.529541,418.894897 
	C401.551849,418.821686 398.051819,415.014496 397.814941,409.221863 
	C397.685699,406.061676 397.800781,402.891815 397.793915,399.726318 
	C397.733429,371.896423 396.735931,344.150024 389.679657,317.015686 
	C384.960846,298.869629 377.510834,281.807281 368.746643,265.285278 
	C367.266113,262.494324 365.593750,259.756287 364.522369,256.807678 
	C362.505371,251.256622 366.416382,245.895660 372.319153,245.676483 
	C375.786865,245.547729 378.833099,246.947220 381.856354,248.313065 
	C386.710938,250.506271 391.516388,252.812134 396.300903,255.155487 
	C401.217255,257.563416 405.543732,257.102661 409.473511,253.060150 
	C411.204285,251.279755 413.265930,249.810593 415.235687,248.274963 
	C419.971863,244.582703 424.014526,244.592239 428.858276,248.272430 
	C429.918640,249.078094 431.063873,249.838806 431.920807,250.834702 
	C438.069855,257.980621 444.846893,257.508698 452.397644,253.099899 
	C456.687378,250.595169 461.387756,248.764954 465.984161,246.822662 
	C470.228699,245.029068 474.599304,244.607849 477.921204,248.493164 
	C481.202728,252.331207 480.162231,256.356842 477.849854,260.500763 
	C464.951660,283.615143 455.019226,307.861938 450.639832,334.122589 
	C447.182129,354.856659 446.208801,375.781189 446.219177,396.767883 
	C446.221161,400.766479 446.307068,404.767761 446.191132,408.763062 
	C446.011749,414.947418 442.519897,418.860046 437.403107,418.810303 
	C432.195984,418.759674 428.714844,414.860992 428.707397,408.687012 
	C428.695953,399.191895 428.529724,389.677979 429.045624,380.205627 
	C429.822632,365.939606 430.427185,351.653534 432.572540,337.480316 
	C434.343353,325.781219 436.912384,314.292297 440.416321,302.588806 
z"/>
<path fill="currentColor" opacity="1.000000" stroke="none" 
	d="
M365.083252,194.083679 
	C354.404846,203.201355 346.212769,213.773331 340.637848,226.309097 
	C339.231720,229.470825 337.484253,232.234879 333.780762,232.941177 
	C330.390808,233.587662 327.372620,232.602768 325.283112,229.928497 
	C322.769653,226.711716 323.181366,223.038483 324.731964,219.521271 
	C332.070099,202.876068 343.053253,189.027557 357.441284,177.981735 
	C375.553497,164.076828 396.314789,157.291977 418.971344,156.014221 
	C425.913391,155.622696 430.128204,158.821609 430.333099,164.338379 
	C430.540466,169.923050 427.391571,173.179764 421.455383,173.340714 
	C400.455780,173.910110 381.683899,180.531570 365.083252,194.083679 
z"/>
<path fill="currentColor" opacity="1.000000" stroke="none" 
	d="
M316.954346,279.693573 
	C316.325714,273.974609 315.410736,268.717957 315.683960,263.353607 
	C315.971527,257.707092 319.036713,254.123611 323.959442,253.936218 
	C328.674500,253.756729 332.341919,256.722198 332.763794,262.254669 
	C333.486115,271.726105 334.057159,281.170441 337.277710,290.217499 
	C338.170227,292.724854 339.238251,295.182831 339.941956,297.741516 
	C341.346405,302.848267 339.248383,307.196503 334.831970,308.765656 
	C330.294189,310.377930 325.713348,308.072968 323.665100,303.092834 
	C320.616211,295.679749 318.465729,288.003845 316.954346,279.693573 
z"/>
</svg>