<?xml version="1.0" standalone="no"?>
<svg version="1.0" xmlns="http://www.w3.org/2000/svg"
 width="100%" height="100%" viewBox="0 0 180 180"
 preserveAspectRatio="xMidYMid meet">
<g transform="translate(0,180) scale(0.1,-0.1)"
fill="currentColor" stroke="none">
<path d="M866 1748 c-18 -26 -20 -64 -5 -127 16 -71 -1 -97 -75 -111 -84 -17
-154 -44 -222 -88 -75 -49 -93 -45 -148 33 -23 33 -52 65 -65 71 -32 16 -60 6
-67 -23 -8 -32 17 -67 82 -111 65 -45 71 -72 27 -133 -47 -67 -90 -166 -104
-242 -16 -84 -31 -93 -134 -76 -65 11 -76 11 -99 -4 -33 -22 -33 -52 0 -74 23
-15 34 -15 97 -5 103 18 121 8 136 -77 13 -71 67 -195 106 -247 14 -18 25 -46
25 -62 0 -24 -10 -35 -56 -67 -31 -21 -63 -49 -71 -62 -19 -29 -10 -69 18 -78
29 -10 62 16 109 85 49 72 63 75 146 25 70 -42 150 -73 224 -87 73 -14 84 -34
68 -127 -14 -84 -6 -119 29 -127 20 -5 31 -2 45 16 21 27 23 66 4 137 -12 44
-12 52 0 57 8 3 14 11 14 19 0 8 23 18 62 26 88 18 160 47 225 90 71 49 92 44
141 -29 46 -66 82 -95 111 -85 29 9 37 49 17 80 -9 14 -41 41 -71 61 -71 47
-74 69 -18 151 46 70 80 151 96 235 14 74 32 84 132 67 65 -11 76 -11 100 5
34 22 30 56 -9 75 -23 11 -42 11 -101 2 -95 -16 -110 -7 -123 68 -15 82 -48
164 -96 234 -54 82 -51 101 31 161 73 53 89 89 55 117 -38 31 -81 1 -135 -92
-29 -51 -57 -53 -126 -10 -71 44 -151 76 -228 91 -42 8 -63 17 -63 27 0 7 -6
16 -13 19 -11 4 -10 19 2 80 14 67 14 78 0 102 -19 35 -52 40 -73 10z m197
-282 c269 -84 441 -329 424 -606 -7 -104 -38 -194 -102 -290 -73 -110 -179
-189 -307 -231 -93 -30 -251 -33 -343 -5 -187 56 -336 203 -401 396 -15 42
-19 83 -18 175 0 111 2 126 32 200 82 205 248 338 472 379 45 8 194 -3 243
-18z"/>
<path d="M760 1454 c-157 -41 -305 -162 -373 -304 -45 -95 -56 -144 -57 -250
-1 -477 540 -740 925 -449 94 71 178 206 204 327 41 192 -17 381 -158 523 -80
80 -177 137 -271 158 -64 15 -205 12 -270 -5z m95 -101 c12 -20 12 -186 1
-221 -10 -30 -63 -52 -91 -38 -11 6 -45 36 -75 67 -30 31 -60 58 -67 60 -6 2
-13 15 -15 29 -2 21 6 30 52 58 55 33 128 60 165 61 11 1 25 -7 30 -16z m255
-31 c67 -33 75 -40 78 -69 2 -23 -2 -33 -16 -37 -20 -7 -102 -84 -102 -97 0
-4 -13 -14 -28 -21 -33 -17 -78 -3 -96 30 -12 23 -13 197 -1 226 11 26 72 15
165 -32z m-519 -159 c8 -14 34 -43 58 -64 60 -53 71 -76 54 -116 -16 -40 -36
-46 -150 -47 -114 -1 -128 7 -119 65 7 46 46 134 76 172 24 31 62 26 81 -10z
m714 -18 c20 -30 43 -84 53 -120 16 -61 16 -65 -1 -77 -19 -14 -183 -16 -225
-3 -13 4 -29 22 -36 39 -16 39 -5 62 55 115 24 21 51 50 58 64 8 14 23 28 35
30 12 2 22 5 24 6 1 0 18 -24 37 -54z m-321 -164 c26 -27 31 -39 31 -81 0 -43
-5 -54 -33 -82 -28 -28 -39 -33 -82 -33 -43 0 -54 5 -82 33 -28 28 -33 39 -33
81 0 52 25 92 70 112 37 16 96 3 129 -30z m-316 -125 c12 -4 28 -22 35 -39 17
-40 6 -63 -54 -116 -24 -21 -50 -50 -58 -64 -21 -39 -57 -41 -86 -3 -31 40
-61 111 -70 165 -5 33 -4 45 9 54 18 13 186 15 224 3z m685 0 c22 -10 22 -29
-3 -108 -27 -88 -70 -147 -103 -141 -14 3 -31 16 -38 30 -8 14 -34 43 -58 64
-59 52 -71 76 -56 112 6 16 22 34 35 40 26 13 194 15 223 3z m-500 -187 c14
-37 14 -206 0 -225 -11 -15 -19 -16 -68 -5 -54 12 -136 50 -166 77 -21 18 -13
61 12 69 10 3 39 29 64 58 60 66 81 77 119 61 17 -6 34 -22 39 -35z m217 12
c0 -13 82 -90 102 -97 14 -4 18 -14 16 -36 -3 -26 -12 -36 -63 -64 -33 -19
-84 -39 -113 -45 -71 -16 -77 -6 -76 114 1 114 7 134 47 150 26 11 36 11 59
-1 16 -7 28 -17 28 -21z"/>
</g>
</svg>
